<svg width="27" height="172" viewBox="0 0 27 172" fill="none" xmlns="http://www.w3.org/2000/svg">
<g id="Group 54">
<g id="inst">
<rect id="Rectangle 5" x="1.5" y="0.5" width="24" height="24" rx="3.5" stroke="white"/>
<circle id="Ellipse" cx="13.5" cy="12.5" r="5" stroke="white"/>
<circle id="Ellipse 2" cx="20.5" cy="5.5" r="1.5" fill="white"/>
</g>
<g id="vk">
<rect id="Rectangle 5_2" x="1.5" y="147.167" width="24" height="24" rx="3.5" stroke="white"/>
<path id="Vector" d="M19.3482 161.215C20.5548 162.384 20.8061 162.956 20.8468 163.026C21.3449 163.893 20.2945 163.961 20.2945 163.961L18.2819 163.992C18.2819 163.992 17.8472 164.081 17.279 163.671C16.5252 163.132 15.4951 161.726 14.9427 161.909C14.3813 162.094 14.5602 163.568 14.5602 163.568C14.5602 163.568 14.5647 163.748 14.4379 163.893C14.2975 164.046 14.0259 163.987 14.0259 163.987H13.4463C13.4463 163.987 11.298 163.997 9.54574 162.089C7.63733 160.01 6.04132 156.123 6.04132 156.123C6.04132 156.123 5.94398 155.876 6.04811 155.745C6.1681 155.598 6.49182 155.6 6.49182 155.6H8.64474C8.64474 155.6 8.84622 155.628 8.9911 155.741C9.11335 155.832 9.179 156.005 9.179 156.005C9.179 156.005 9.43934 156.729 9.90117 157.564C10.7999 159.19 11.2187 159.546 11.5243 159.371C11.9681 159.115 11.8345 157.072 11.8345 157.072C11.8345 157.072 11.8435 156.329 11.6104 155.998C11.4293 155.741 11.0919 155.666 10.9425 155.644C10.8203 155.63 11.0195 155.335 11.2776 155.204C11.6647 155.007 12.3506 154.993 13.1588 155.002C13.7882 155.009 14.0259 155 14.0259 155C14.7684 155.187 14.5171 155.914 14.5171 157.648C14.5171 158.206 14.4198 158.989 14.8046 159.246C14.9699 159.361 15.563 159.378 16.5704 157.585C17.0504 156.734 17.4284 155.935 17.4284 155.935C17.4284 155.935 17.5099 155.755 17.6299 155.68C17.7567 155.6 17.9242 155.6 17.9242 155.6L20.1903 155.612C20.1903 155.612 20.8717 155.523 20.9804 155.846C21.0959 156.183 20.702 156.774 19.7783 158.065C18.257 160.186 18.0872 159.989 19.3482 161.215Z" fill="white"/>
</g>
<g id="whatsapp">
<path id="Vector_2" fill-rule="evenodd" clip-rule="evenodd" d="M11.7322 104.122C11.6131 103.55 11.3828 103.495 11.1737 103.447C11.0033 103.407 10.8072 103.369 10.6111 103.332C10.4175 103.295 10.083 103.312 9.75349 103.579C9.42204 103.843 8.51536 104.465 8.21717 106.026C7.91947 107.585 8.68664 109.295 8.79149 109.534C8.89926 109.771 10.1561 113.436 12.9003 115.278C15.1824 116.807 15.7282 116.695 16.2755 116.745C16.8258 116.794 18.1626 116.311 18.5487 115.616C18.9343 114.924 19.0554 114.29 19.0082 114.143C18.9611 113.996 18.7799 113.88 18.515 113.664C18.2526 113.449 16.9536 112.408 16.7029 112.249C16.4541 112.094 16.2681 112.004 16.0116 112.282C15.7552 112.561 15.0546 113.168 14.8423 113.347C14.6301 113.525 14.4557 113.519 14.1903 113.306C13.9278 113.091 13.0451 112.576 12.1284 111.281C11.4151 110.273 11.0225 109.124 10.9114 108.773C10.7999 108.424 10.9853 108.281 11.1634 108.15C11.3235 108.035 11.5295 107.836 11.7126 107.679C11.8932 107.521 11.9666 107.4 12.1062 107.208C12.2434 107.015 12.2304 106.82 12.1882 106.647C12.146 106.474 11.8739 104.799 11.7322 104.122Z" fill="white"/>
<path id="Union" d="M3.89061 118.273L4.36495 118.431L4.453 118.167L4.2748 117.953L3.89061 118.273ZM2.38889 122.778L1.91455 122.62L1.63529 123.457L2.49735 123.266L2.38889 122.778ZM8.03513 121.523L8.25401 121.074L8.09706 120.997L7.92667 121.035L8.03513 121.523ZM25.5 110.278C25.5 116.905 20.1274 122.278 13.5 122.278V123.278C20.6797 123.278 26.5 117.458 26.5 110.278H25.5ZM13.5 98.2778C20.1274 98.2778 25.5 103.65 25.5 110.278H26.5C26.5 103.098 20.6797 97.2778 13.5 97.2778V98.2778ZM1.5 110.278C1.5 103.65 6.87258 98.2778 13.5 98.2778V97.2778C6.3203 97.2778 0.5 103.098 0.5 110.278H1.5ZM4.2748 117.953C2.54195 115.872 1.5 113.197 1.5 110.278H0.5C0.5 113.44 1.62947 116.339 3.50641 118.593L4.2748 117.953ZM2.86323 122.936L4.36495 118.431L3.41627 118.115L1.91455 122.62L2.86323 122.936ZM7.92667 121.035L2.28042 122.29L2.49735 123.266L8.1436 122.011L7.92667 121.035ZM13.5 122.278C11.6178 122.278 9.8382 121.845 8.25401 121.074L7.81626 121.973C9.53385 122.809 11.4629 123.278 13.5 123.278V122.278Z" fill="white"/>
</g>
<g id="fb">
<rect id="Rectangle 5_3" x="1.5" y="49.5" width="24" height="24" rx="3.5" stroke="white"/>
<path id="Vector_3" d="M16.6309 61.2H14.6667V69H11.75V61.2H10V58.8H11.75V57.3539C11.7523 55.2492 12.6022 54 15.013 54H17V56.4H15.667C14.7282 56.4 14.6667 56.7609 14.6667 57.4336V58.8H17L16.6309 61.2Z" fill="white"/>
</g>
</g>
</svg>
