<svg width="30" height="23" viewBox="0 0 30 23" fill="none" xmlns="http://www.w3.org/2000/svg">
<g id="Group 4">
<path id="Ellipse 3" d="M18.7537 9C18.7537 11.3296 17.62 13.4742 16.4421 15.0666C15.8572 15.8573 15.2716 16.498 14.8325 16.9406C14.6796 17.0947 14.5448 17.2245 14.4345 17.3278C14.3241 17.2245 14.1893 17.0947 14.0364 16.9406C13.5973 16.498 13.0117 15.8573 12.4268 15.0666C11.2489 13.4742 10.1152 11.3296 10.1152 9C10.1152 6.67044 11.2489 4.52577 12.4268 2.93339C13.0117 2.14273 13.5973 1.502 14.0364 1.0594C14.1893 0.905279 14.3241 0.775524 14.4345 0.672181C14.5448 0.775524 14.6796 0.905279 14.8325 1.0594C15.2716 1.502 15.8572 2.14273 16.4421 2.93339C17.62 4.52577 18.7537 6.67044 18.7537 9Z" stroke="white"/>
<path id="Ellipse 3.1" d="M12.5572 8.77945C14.0181 10.4467 14.5897 12.8775 14.7816 14.9616C14.8767 15.9945 14.8765 16.9202 14.8524 17.5874C14.8431 17.8431 14.8304 18.0602 14.8183 18.23C14.6695 18.2438 14.4793 18.2584 14.2552 18.2689C13.6706 18.2964 12.8595 18.2967 11.9544 18.1882C10.1283 17.9692 7.99842 17.3167 6.53752 15.6495C5.07661 13.9822 4.50495 11.5515 4.31307 9.46735C4.21798 8.43447 4.2182 7.50877 4.24231 6.84152C4.25156 6.58577 4.26428 6.36869 4.27639 6.1989C4.42516 6.18509 4.61537 6.17057 4.83946 6.16002C5.42412 6.13249 6.23524 6.13224 7.14027 6.24077C8.96641 6.45975 11.0963 7.11217 12.5572 8.77945Z" stroke="white"/>
<path id="Ellipse 3.2" d="M17.6494 8.77945C16.1885 10.4467 15.6168 12.8775 15.4249 14.9616C15.3298 15.9945 15.33 16.9202 15.3542 17.5874C15.3634 17.8431 15.3761 18.0602 15.3882 18.23C15.537 18.2438 15.7272 18.2584 15.9513 18.2689C16.536 18.2964 17.3471 18.2967 18.2521 18.1882C20.0783 17.9692 22.2081 17.3167 23.669 15.6495C25.1299 13.9822 25.7016 11.5515 25.8935 9.46735C25.9886 8.43447 25.9883 7.50877 25.9642 6.84152C25.955 6.58577 25.9423 6.36869 25.9302 6.1989C25.7814 6.18509 25.5912 6.17057 25.3671 6.16002C24.7824 6.13249 23.9713 6.13224 23.0663 6.24077C21.2401 6.45975 19.1103 7.11217 17.6494 8.77945Z" stroke="white"/>
</g>
</svg>
